<?xml version="1.0" encoding="UTF-8" standalone="no"?>
<!-- Created with Inkscape (http://www.inkscape.org/) -->

<svg
   xmlns:dc="http://purl.org/dc/elements/1.1/"
   xmlns:cc="http://creativecommons.org/ns#"
   xmlns:rdf="http://www.w3.org/1999/02/22-rdf-syntax-ns#"
   xmlns:svg="http://www.w3.org/2000/svg"
   xmlns="http://www.w3.org/2000/svg"
   xmlns:sodipodi="http://sodipodi.sourceforge.net/DTD/sodipodi-0.dtd"
   xmlns:inkscape="http://www.inkscape.org/namespaces/inkscape"
   width="512"
   height="512"
   viewBox="0 0 135.46667 135.46667"
   version="1.1"
   id="svg4607"
   inkscape:version="0.92.3 (2405546, 2018-03-11)"
   sodipodi:docname="ico.svg">
  <defs
     id="defs4601" />
  <sodipodi:namedview
     id="base"
     pagecolor="#ffffff"
     bordercolor="#666666"
     borderopacity="1.0"
     inkscape:pageopacity="0.0"
     inkscape:pageshadow="2"
     inkscape:zoom="0.98994949"
     inkscape:cx="201.93025"
     inkscape:cy="374.07844"
     inkscape:document-units="mm"
     inkscape:current-layer="layer1"
     showgrid="false"
     inkscape:window-width="1858"
     inkscape:window-height="1057"
     inkscape:window-x="-8"
     inkscape:window-y="-8"
     inkscape:window-maximized="1" />
  <metadata
     id="metadata4604">
    <rdf:RDF>
      <cc:Work
         rdf:about="">
        <dc:format>image/svg+xml</dc:format>
        <dc:type
           rdf:resource="http://purl.org/dc/dcmitype/StillImage" />
        <dc:title></dc:title>
      </cc:Work>
    </rdf:RDF>
  </metadata>
  <g
     inkscape:label="Layer 1"
     inkscape:groupmode="layer"
     id="layer1"
     transform="translate(0,-161.53333)">
    <path
       inkscape:connector-curvature="0"
       style="fill:#000000;stroke-width:0.4008635"
       d="m 12.311213,274.98093 c -0.891742,-0.12502 -2.4868534,-0.24266 -3.5447491,-0.26198 -3.8851674,-0.0709 -3.7935044,0.12642 -4.164561,-8.9672 -0.1831987,-4.49043 -0.3108664,-10.37212 -0.2827783,-13.07039 0.1225547,-11.98326 0.1321363,-26.97367 0.019147,-34.63895 -0.065741,-4.57887 0.2055408,-11.60329 0.6025792,-15.60982 0.3976766,-4.00652 0.7763948,-8.82326 0.8422054,-10.70385 0.1155331,-3.30342 0.1780918,-3.46609 1.8348674,-4.79919 1.7634364,-1.41882 3.6800084,-1.95719 5.3771874,-1.51046 0.513852,0.13522 5.069132,0.22686 10.122306,0.20371 10.138006,-0.0467 12.634558,0.23141 13.708031,1.52753 0.889441,1.07391 0.803714,8.21303 -0.112991,9.41967 -1.196222,1.57435 -2.021959,1.75581 -9.959085,2.18829 -4.080429,0.22229 -8.999809,0.50453 -10.931893,0.62703 l -3.512894,0.22264 -0.05746,2.75031 -0.05746,2.75028 h 1.644072 c 0.904188,0 3.02215,-0.15662 4.706435,-0.34801 2.83895,-0.32273 3.206688,-0.29885 5.038554,0.32378 2.66105,0.90481 3.152435,1.50983 2.711479,3.33854 -0.529173,2.19605 -1.315205,2.50294 -7.015449,2.74012 -2.64707,0.11024 -5.542449,0.30799 -6.434189,0.44003 l -1.621345,0.23985 0.09,6.51901 c 0.05108,3.58548 0.3664,9.52947 0.703882,13.20892 0.43853,4.77703 0.453849,8.13524 0.05107,11.74457 -0.308309,2.78002 -0.666729,6.12499 -0.797202,7.43323 -0.130217,1.30826 0.03191,5.02213 0.36512,8.2531 l 0.602579,5.87447 4.355037,-0.16821 c 2.395252,-0.0923 6.852357,-0.29218 9.904699,-0.44354 6.185946,-0.30694 8.935211,0.0315 10.364613,1.28108 1.079792,0.94302 1.476192,6.74427 0.545129,7.98062 -1.153771,1.53246 -2.966998,1.75683 -13.875145,1.7169 -5.28565,-0.0176 -10.339909,-0.13731 -11.231649,-0.26198 z"
       id="path4677" />
    <path
       inkscape:connector-curvature="0"
       style="fill:#000000;stroke-width:0.4008635"
       d="m 85.248081,275.4289 c -0.351081,-0.23283 -1.342664,-1.90014 -2.203567,-3.70545 -0.860977,-1.80529 -1.907826,-3.65533 -2.326502,-4.11116 -2.311765,-2.5173 -6.546921,-11.08079 -9.323769,-18.85287 -2.479306,-6.93926 -5.221115,-13.2635 -7.252706,-16.72948 -0.873685,-1.49054 -2.080297,-3.98113 -2.681537,-5.53469 -1.444411,-3.73252 -6.029112,-11.89318 -6.681737,-11.89318 -0.524709,0 -0.123159,14.4612 0.466619,16.79912 0.280865,1.11338 0.246383,1.15249 -0.538756,0.61218 -0.76126,-0.52402 -0.837984,0.47496 -0.833895,10.85256 0.0061,13.99255 -0.8717,26.00071 -1.969947,26.96517 -0.955884,0.83949 -3.37042,0.8869 -5.13564,0.10082 l -1.275878,-0.56816 v -11.54803 c 0,-6.35141 0.324899,-16.14049 0.722266,-21.75354 0.489596,-6.91524 0.605765,-14.0088 0.361921,-22.0024 -0.338312,-11.06725 -0.42448,-11.83488 -1.397807,-12.41077 -1.304151,-0.77168 -1.425057,-3.70903 -0.218308,-5.29824 0.580246,-0.76364 0.805125,-2.0556 0.770854,-4.42196 -0.05113,-3.71194 0.683768,-6.07112 2.080809,-6.65509 1.349792,-0.56422 3.591208,-0.48764 4.65505,0.15908 0.828992,0.50397 0.922243,1.3867 0.879864,8.32526 -0.03188,5.12901 0.141061,7.7615 0.507462,7.7615 0.305124,0 0.555344,-0.1018 0.555344,-0.22616 0,-0.12431 0.553433,-0.55914 1.230373,-0.9663 0.67676,-0.40716 2.352428,-1.5431 3.723799,-2.52429 3.09262,-2.2127 10.253487,-6.0471 13.177905,-7.05631 3.555026,-1.22678 6.620577,-3.01255 6.819606,-3.97258 0.144224,-0.6966 0.683391,-1.00185 2.777616,-1.57317 2.149999,-0.58647 2.827783,-0.65136 3.926273,-0.37601 3.601554,0.9028 2.670498,3.25969 -2.645611,6.69747 -1.801417,1.16491 -8.002927,4.72705 -13.781249,7.91591 l -10.505931,5.79794 0.603225,1.98788 c 0.331921,1.09332 1.076714,2.8327 1.65517,3.86527 1.613168,2.8795 4.939811,9.0702 6.121732,11.39201 0.582788,1.1447 1.880501,3.28546 2.88401,4.75725 1.98992,2.91856 3.063386,5.10604 4.258902,8.67917 0.427051,1.27712 1.479329,4.19523 2.33781,6.48466 0.858482,2.28946 1.994566,5.43372 2.52457,6.98727 1.862892,5.46006 7.872274,16.75041 9.758596,18.33421 0.459596,0.38615 1.080745,2.0586 1.418802,3.82218 0.549599,2.86684 0.518318,3.18574 -0.361291,3.72075 -1.134625,0.68978 -4.143438,0.78569 -5.084192,0.16225 z"
       id="path4683" />
    <path
       inkscape:connector-curvature="0"
       style="fill:#000000;stroke-width:0.4008635"
       d="m 99.944371,273.31607 c -5.733574,-0.39693 -6.361314,-0.83192 -7.89641,-5.47213 -1.320509,-3.99137 -1.300084,-5.63367 0.0791,-6.39259 1.976765,-1.08753 3.988248,-0.7655 9.972029,1.59656 3.49498,1.37959 4.6252,1.66475 7.21924,1.82149 1.69155,0.10216 3.56062,0.29147 4.15345,0.42017 0.85184,0.18543 1.78341,-0.10852 4.4428,-1.40095 2.83212,-1.37651 3.5978,-1.9695 4.83645,-3.74597 1.39334,-1.99827 1.47173,-2.37965 1.47371,-7.1652 0,-4.73591 -0.0825,-5.15774 -1.33206,-6.68992 -1.26158,-1.54641 -4.65141,-4.17989 -8.40132,-6.52688 -2.34061,-1.4649 -5.03308,-3.84996 -7.92584,-7.02085 -1.35227,-1.4823 -3.36835,-3.35077 -4.48027,-4.15209 -1.11176,-0.80136 -2.602249,-2.24332 -3.312065,-3.20439 -0.709825,-0.96107 -1.840743,-2.23686 -2.513099,-2.83512 -2.461633,-2.19019 -3.26638,-3.90295 -3.37489,-7.18302 -0.05742,-1.71707 -0.370224,-4.66064 -0.696271,-6.54122 -0.326189,-1.88063 -0.594924,-4.75624 -0.597484,-6.39031 -0.0054,-2.90948 0.04462,-3.02655 2.373422,-5.64929 1.30787,-1.47304 2.526433,-3.1551 2.707841,-3.73792 0.469173,-1.50733 3.081894,-2.75643 8.439496,-4.03464 8.79625,-2.0986 13.8449,-2.4441 16.66169,-1.14011 0.89449,0.41405 2.25074,1.36753 3.01392,2.11878 1.27882,1.25878 1.38701,1.64859 1.37943,4.97076 -0.005,1.98264 -0.18704,3.75205 -0.40534,3.93198 -0.21832,0.17982 -0.95227,0.48803 -1.63086,0.6847 -1.30613,0.3785 -1.37405,0.37151 -8.49433,-0.87243 -5.32861,-0.93094 -10.40451,-0.76564 -13.9054,0.45288 -1.41229,0.49155 -2.658888,1.17932 -2.834291,1.56369 -0.77576,1.7005 1.225831,14.489 2.679431,17.11977 0.87003,1.57458 4.44389,4.70571 8.542,7.48394 2.85624,1.93628 3.08829,2.09638 5.60169,3.86526 0.92945,0.65415 3.56141,3.19632 5.84887,5.64928 2.28735,2.45299 4.74746,4.91577 5.46686,5.47289 1.52859,1.18386 3.56318,4.57046 4.85802,8.08616 1.77218,4.81148 0.20747,11.34815 -4.06407,16.98135 -2.15882,2.84678 -3.04596,3.4722 -7.23441,5.09995 -5.31036,2.06371 -14.18913,3.28279 -20.651228,2.83542 z"
       id="path4665" />
  </g>
</svg>
