<?xml-stylesheet type="text/css" href="/themes/eks2021/assets/css/header-branding.css" ?><svg xmlns:inkpad="http://inkpad.envoza.com/svg_extensions" xmlns="http://www.w3.org/2000/svg" viewBox="0 0 2550 2550"><g inkpad:layerName="Layer 1"><path stroke="#000" stroke-width="30.854" d="M23.923 1233.81C23.923 594.153 594.36 52.026 1294.8 52.026c700.44 0 1221.09 547.368 1221.09 1187.024 0 639.66-557.34 1239.43-1257.78 1239.43-700.435 0-1234.187-605.01-1234.187-1244.67z" fill="none" stroke-linecap="round" stroke-linejoin="round"/><path stroke="#000" stroke-width="33" d="M631.847 2150.94c-259.416-246.32-104.815-623.65-104.815-623.65s-205.169-355.13-73.37-463.8c149.361-123.161 400.916 94.33 400.916 94.33s222.732-174.91 492.632-175.565c269.89-.655 479.52 151.985 479.52 151.985s222.73-178.189 356.37-52.41c67.51 63.54 128.4 191.29-107.43 437.6" fill="none" stroke-linecap="round" stroke-linejoin="round"/><path stroke="#000" stroke-width="26" d="M652.8 1346.2s-77.743-83.02-3.294-169.98M532.891 1153.82c120.568-22.4 198.97 106.07 198.97 106.07" fill="none" stroke-linecap="round" stroke-linejoin="round"/><path stroke="#000" stroke-width="28" d="M820.805 1192.69s54.684-51.39 91.579-72.47" fill="none" stroke-linecap="round" stroke-linejoin="round"/><path stroke="#000" stroke-width="33" d="M1786.63 1109.07c32.29 16.43 103.67 82.71 103.67 82.71" fill="none" stroke-linecap="round" stroke-linejoin="round"/><path stroke="#000" stroke-width="26" d="M1943.97 1209.81c95.91-35.57 196.26-32.4 196.26-32.4M2015.74 1368.59s59.07-59.07 10.8-174.03" fill="none" stroke-linecap="round" stroke-linejoin="round"/><path stroke="#000" stroke-width="28.66" d="M860.816 1582.54l919.924-49.63" fill="none" stroke-linecap="round" stroke-linejoin="round"/><path stroke="#000" stroke-width="8.4" d="M1124.54 1626.34c0-25.83 28.75-52.43 60.89-52.43 32.15 0 63.01 28.3 63.01 54.12 0 25.83-31.7 48.21-63.85 48.21-32.15 0-60.05-24.08-60.05-49.9zM1326.67 1611.54c0-29.43 29.53-53.28 65.96-53.28 36.43 0 65.97 23.85 65.97 53.28 0 29.42-29.54 53.28-65.97 53.28s-65.96-23.86-65.96-53.28z" stroke-linecap="round" stroke-linejoin="round"/><path d="M1181.63 1607.73c0-8.4 8.42-15.22 18.82-15.22 10.39 0 18.81 6.82 18.81 15.22 0 8.41-8.42 15.23-18.81 15.23-10.4 0-18.82-6.82-18.82-15.23zM1402.36 1589.76c0-6.65 5.96-12.05 13.32-12.05s13.32 5.4 13.32 12.05c0 6.66-5.96 12.05-13.32 12.05s-13.32-5.39-13.32-12.05z" fill="#fff"/><path stroke="#000" stroke-width="28" d="M1224.26 1770.46c-1.35-24.71 12.25-32.66 61.24-34.3 40.8-1.36 71.24 7.97 72.67 32.66 1.42 24.7-33.48 65.73-66.96 66.14-33.48.41-64.5-19.59-66.95-64.5z" fill="none" stroke-linecap="round" stroke-linejoin="round"/><path stroke="#000" stroke-width="33" d="M1182.62 1927.23s-48.99 60.83-53.08 111.86c-4.08 51.03 12.75 77.84 36.75 92.26 59.86 35.98 134.11-62.46 175.54-74.3 41.44-11.84 73.93 16.56 116.77-6.53 104.51-56.34 10.61-129.82 10.61-129.82" fill="none" stroke-linecap="round" stroke-linejoin="round"/><path stroke="#000" stroke-width="20.361" d="M1483.68 2038.33s-6.47 77.62-20.88 78.84c-6.12.52-19.03-7.86-18.68-23.07.29-12.65-20.72-31.1-18.13-31.87 36.26-10.71 57.69-23.9 57.69-23.9z" fill="none" stroke-linecap="round" stroke-linejoin="round"/><path stroke="#000" stroke-width="33" d="M548.77 2246.57c82.862-132.87 164.793-106.2 267.16-67.15 138.58 52.86 163.581 165.73 127.15 244.3-36.43 78.58-177.511 113.58-272.874 70.01-95.363-43.58-167.269-173.67-121.436-247.16zM1946 2079.42c-82.5 47.5-205.73 90-132.87 258.58 31.86 73.71 162.87 105.72 261.45 30.01 75.5-58 116.11-122.31 68.58-220.02-25.72-52.86-114.65-116.08-197.16-68.57zM2078.87 1507.95c135.72 292.88-28.58 552.89-28.58 552.89" fill="none" stroke-linecap="round" stroke-linejoin="round"/></g><g inkpad:layerName="Layer 2" stroke="#000" fill="none" stroke-linecap="round" stroke-linejoin="round"><path stroke-width="28" inkpad:shadowRadius="3" inkpad:shadowOpacity="1" inkpad:shadowAngle="1.571" d="M1085.12 1046.88s-142.254 65.83-256.073 156.35" inkpad:shadowOffset="3" stroke-opacity=".327" inkpad:shadowColor="#000000"/><path stroke-width="29.273" inkpad:shadowRadius="3" inkpad:shadowOpacity="1" inkpad:shadowAngle="1.571" d="M559.319 1164.63c86.53 2 155.721 97.18 155.721 97.18" inkpad:shadowOffset="3" stroke-opacity=".33" inkpad:shadowColor="#000000"/><path stroke-width="46.663" inkpad:shadowRadius="3" inkpad:shadowOpacity="1" inkpad:shadowAngle="1.571" d="M494.464 1059.62c-160.643 89.14 41.48 446.47 41.48 446.47" inkpad:shadowOffset="3" stroke-opacity=".303" inkpad:shadowColor="#000000"/><path stroke-width="33" inkpad:shadowRadius="3" inkpad:shadowOpacity="1" inkpad:shadowAngle="1.571" d="M873.269 1588.48l905.151-44.19" inkpad:shadowOffset="3" stroke-opacity=".327" inkpad:shadowColor="#000000"/><path stroke-width="28" inkpad:shadowRadius="3" inkpad:shadowOpacity="1" inkpad:shadowAngle="1.571" d="M1236.58 1774.09c18.9 51.7 72.02 43.5 72.02 43.5" inkpad:shadowOffset="3" stroke-opacity=".327" inkpad:shadowColor="#000000"/><path stroke-width="26.88" inkpad:shadowRadius="3" inkpad:shadowOpacity="1" inkpad:shadowAngle="1.571" d="M1189.47 1945.24c-101.78 180.74 42.23 185.52 42.23 185.52" inkpad:shadowOffset="3" stroke-opacity=".327" inkpad:shadowColor="#000000"/><path stroke-width="52.422" inkpad:shadowRadius="3" inkpad:shadowOpacity="1" inkpad:shadowAngle="1.571" d="M549.989 1549.61c-146.318 432.86 103.147 581.5 103.147 581.5" inkpad:shadowOffset="3" stroke-opacity=".327" inkpad:shadowColor="#000000"/><path stroke-width="26.592" inkpad:shadowRadius="3" inkpad:shadowOpacity="1" inkpad:shadowAngle="1.571" d="M1965.59 1217.66c32.96-15.07 138.19-29.88 138.19-29.88" inkpad:shadowOffset="3" stroke-opacity=".327" inkpad:shadowColor="#000000"/><path stroke-width="17.062" inkpad:shadowRadius="3" inkpad:shadowOpacity="1" inkpad:shadowAngle="1.571" d="M2013.84 1371.59s18.87-68.68 25.77-87.94" inkpad:shadowOffset="3" stroke-opacity=".327" inkpad:shadowColor="#000000"/><path stroke-width="34.221" inkpad:shadowRadius="3" inkpad:shadowOpacity="1" inkpad:shadowAngle="1.571" d="M2076.63 1500.01c42.09-33.36 124.26-186.49 124.26-186.49" inkpad:shadowOffset="3" stroke-opacity=".327" inkpad:shadowColor="#000000"/><path stroke-width="32.84" inkpad:shadowRadius="3" inkpad:shadowOpacity="1" inkpad:shadowAngle="1.571" d="M956.093 2418.26c413.867 144.86 842.727-84.17 842.727-84.17" inkpad:shadowOffset="3" stroke-opacity=".327" inkpad:shadowColor="#000000"/><path stroke-width="33.871" inkpad:shadowRadius="3" inkpad:shadowOpacity="1" inkpad:shadowAngle="1.571" d="M649.43 2164.49c-261.735 204.76 79.142 333.08 79.142 333.08" inkpad:shadowOffset="3" stroke-opacity=".327" inkpad:shadowColor="#000000"/><path stroke-width="30.854" inkpad:shadowRadius="3" inkpad:shadowOpacity="1" inkpad:shadowAngle="1.571" d="M1821.58 2304.07c90.09 198.68 305.29-2.38 305.29-2.38" inkpad:shadowOffset="3" stroke-opacity=".327" inkpad:shadowColor="#000000"/></g></svg>